<svg xmlns="http://www.w3.org/2000/svg" xmlns:xlink="http://www.w3.org/1999/xlink" width="100" height="100" viewBox="0 0 5000 5000">
  <defs>
    <style>
      .cls-1, .cls-2 {
        fill: #313131;
      }

      .cls-1 {
        stroke: #000;
        stroke-width: 121.85px;
      }

      .cls-1, .cls-2, .cls-3 {
        fill-rule: evenodd;
      }

      .cls-2 {
        stroke: #fff;
        stroke-width: 77.54px;
      }

      .cls-3 {
        stroke: #313131;
        stroke-width: 17.89px;
        fill: url(#linear-gradient);
      }
    </style>
    <linearGradient id="linear-gradient" x1="1039.88" y1="490.194" x2="3960.28" y2="4509.78" gradientUnits="userSpaceOnUse">
      <stop offset="0" stop-color="#964b8b"/>
      <stop offset="0.014" stop-color="#964b8b"/>
      <stop offset="1" stop-color="#71c2bb"/>
    </linearGradient>
  </defs>
  <path id="Shape_2_copy" data-name="Shape 2 copy" class="cls-1" d="M2738.63,2758.92c164.35,307.97,342.62,605.05,510.87,869.03,387.94-331.56,659.26-762.82,666.63-758.61s-194.28,471.08-571.05,906.78c338.96,519.17,619.14,874.73,615.1,877.76S3615.27,4455.74,3165,3966.4a2382.667,2382.667,0,0,1-201.47,173.67c-1874.5,1436.25-2551.579-391.44-456.4-1847.77C3998.18,1255.89,3492.42,339.6,2301.4,803.987c-122.98,47.952-238.5,106.821-345.86,171.972Q2145.9,1515.571,2384.32,2036.57c-159.4-4.7-277.84,54.74-392.55,168.49a8712.572,8712.572,0,0,1-426.42-940.74c-335.46,294.58-520.07,591.88-525.47,589.42s194.59-322.11,500.53-655.22q-80.025-213.6-149.31-431.965c30.92-36.067,89.78-73.231,197.84-115.49,110.39-43.169,208.21-65.689,239.13-55.384q40.11,126.232,82.81,251.475C3062.47-65.158,5359.95,87.556,2396.19,2634.44c-975.56,838.34-394.34,1601.76,354.07,1309.06,92-35.98,182.21-84.7,269.16-141.61-192.74-226.36-398.96-503.35-602.14-837.46C2506.55,2956.15,2678.72,2875.12,2738.63,2758.92Z"/>
  <path id="Shape_2_copy_2" data-name="Shape 2 copy 2" class="cls-2" d="M2738.63,2758.92c164.35,307.97,342.62,605.05,510.87,869.03,387.94-331.56,661.36-761.77,666.63-758.61s-194.28,471.08-571.05,906.78c338.96,519.17,622.16,867.66,615.1,877.76S3615.27,4455.74,3165,3966.4a2382.667,2382.667,0,0,1-201.47,173.67c-1874.5,1436.25-2551.579-391.44-456.4-1847.77C3998.18,1255.89,3492.42,339.6,2301.4,803.987c-122.98,47.952-238.5,106.821-345.86,171.972Q2145.9,1515.571,2384.32,2036.57c-159.4-4.7-277.84,54.74-392.55,168.49a8712.572,8712.572,0,0,1-426.42-940.74c-335.46,294.58-523.02,590.9-525.47,589.42s194.59-322.11,500.53-655.22q-80.025-213.6-149.31-431.965c30.92-36.067,89.78-73.231,197.84-115.49,110.39-43.169,208.21-65.689,239.13-55.384q40.11,126.232,82.81,251.475C3062.47-65.158,5359.95,87.556,2396.19,2634.44c-975.56,838.34-394.34,1601.76,354.07,1309.06,92-35.98,182.21-84.7,269.16-141.61-192.74-226.36-398.96-503.35-602.14-837.46C2506.55,2956.15,2678.72,2875.12,2738.63,2758.92Z"/>
  <path class="cls-3" d="M2738.63,2758.92c164.35,307.97,342.62,605.05,510.87,869.03,387.94-331.56,658.21-761.77,666.63-758.61s-194.28,471.08-571.05,906.78c338.96,519.17,621.16,870.69,615.1,877.76S3615.27,4455.74,3165,3966.4a2382.667,2382.667,0,0,1-201.47,173.67c-1874.5,1436.25-2551.579-391.44-456.4-1847.77C3998.18,1255.89,3492.42,339.6,2301.4,803.987c-122.98,47.952-238.5,106.821-345.86,171.972Q2145.9,1515.571,2384.32,2036.57c-159.4-4.7-277.84,54.74-392.55,168.49a8712.572,8712.572,0,0,1-426.42-940.74c-335.46,294.58-523.02,590.41-525.47,589.42s194.59-322.11,500.53-655.22q-80.025-213.6-149.31-431.965c30.92-36.067,89.78-73.231,197.84-115.49,110.39-43.169,208.21-65.689,239.13-55.384q40.11,126.232,82.81,251.475C3062.47-65.158,5359.95,87.556,2396.19,2634.44c-975.56,838.34-394.34,1601.76,354.07,1309.06,92-35.98,182.21-84.7,269.16-141.61-192.74-226.36-398.96-503.35-602.14-837.46C2506.55,2956.15,2678.72,2875.12,2738.63,2758.92Z"/>
</svg>
